<?xml version="1.0" encoding="iso-8859-1"?>
<!-- Uploaded to: SVG Repo, www.svgrepo.com, Generator: SVG Repo Mixer Tools -->
<svg height="800px" width="800px" version="1.1" id="Layer_1" xmlns="http://www.w3.org/2000/svg" xmlns:xlink="http://www.w3.org/1999/xlink" 
	 viewBox="0 0 496.158 496.158" xml:space="preserve">
<path style="fill:#EB9783;" d="M248.082,0.003C111.07,0.003,0,111.063,0,248.085c0,137.001,111.07,248.07,248.082,248.07
	c137.006,0,248.076-111.069,248.076-248.07C496.158,111.062,385.088,0.003,248.082,0.003z"/>
<path style="fill:#DBB595;" d="M74.532,70.834c-8.71,53.711-24.61,148.872-32.663,178.969c-5.811,21.717-9.94,26.916-10.398,38.845
	c-0.27,7.013,7.34,22.94,19.729,19.728c0,0,3.211,21.105,25.693,20.188c0,0,2.293,22.023,27.069,21.564
	c0,0-2.295,41.293,43.586,23.399l38.08-70.656c0,0,47.7-161.856,48.3-174.76c0.479-10.304,3.83-94.442,5.16-127.929
	C175.092,2.464,117.277,28.976,74.532,70.834z"/>
<g>
	<path style="fill:#D3AB8D;" d="M69.246,233.745c-10.684-3.846-5.2,13.764-5.2,13.764s-17.588,50.009-12.847,60.867
		c0,0-1.377-12.54,4.741-31.352C62.058,258.214,69.246,233.745,69.246,233.745z"/>
	<path style="fill:#D3AB8D;" d="M89.624,269.493c-2.478,7.519-4.015,16.555-4.015,16.555c-0.918,3.365-8.717,42.515-8.717,42.515
		c1.835-4.128,9.787-42.668,9.787-42.668c2.294-8.106,8.106-26.458,8.106-26.458C94.15,259.628,91.383,264.154,89.624,269.493z"/>
	<path style="fill:#D3AB8D;" d="M113.138,325.07c-1.529,5.836-9.176,25.057-9.176,25.057c1.376-1.835,8.104-18.045,9.634-23.552
		c1.53-5.505,3.059-16.364,3.059-16.364c1.553-5.364,3.365-24.262,3.635-27.146c-0.323,1.769-2.93,7.697-3.596,14.873
		C115.661,309.064,114.024,321.684,113.138,325.07z M120.289,283.066c0.029-0.158,0.047-0.294,0.036-0.383
		C120.325,282.683,120.312,282.826,120.289,283.066z"/>
	<path style="fill:#D3AB8D;" d="M154.889,269.837c0,0-0.764,49.398,2.142,54.75C157.03,324.587,175.383,298.283,154.889,269.837z"/>
	<path style="fill:#D3AB8D;" d="M229.674,189.087c0-21.563,3.212-50.927,3.212-60.562L153.972,268.46c0,0,9.176,23.399,7.34,40.375
		c-0.175,1.612-0.312,2.932-0.416,4.005c-3.285,8.208-14.789,37.617-15.183,47.839c0,0-4.129,32.117,34.869,32.117
		c0,0,44.045-9.176,49.092-51.386c0,0,0.459-33.035-7.341-51.387C222.333,290.024,229.674,210.651,229.674,189.087z"/>
</g>
<path style="fill:#DBB595;" d="M230.592,190.464c0-21.564,2.982-54.139,2.982-63.774l-80.291,141.542c0,0,10.782,25.005,8.946,41.98
	c-0.175,1.612-0.312,2.931-0.416,4.004c-3.284,8.208-14.789,37.617-15.183,47.84c0,0-4.13,32.116,34.869,32.116
	c0,0,44.045-9.176,49.092-51.387c0,0,0.458-33.033-7.341-51.386C223.251,291.4,230.592,212.028,230.592,190.464z"/>
<path style="fill:#D3AE92;" d="M182.432,345.729c-24.849-8.698-32.04,29.223-31.519,31.207c1.403,5.334,36.419,16.375,40.967,12.263
	C193.4,387.822,207.279,354.428,182.432,345.729z"/>
<path style="fill:#E5DFE3;" d="M182.11,346.61c-24.354-8.526-31.404,28.642-30.893,30.586c1.376,5.229,35.696,16.051,40.153,12.02
	C192.863,387.867,206.466,355.136,182.11,346.61z"/>
<path style="fill:#F2EDF1;" d="M182.11,346.61c-24.354-8.526-31.404,28.642-30.893,30.586
	C152.594,382.426,206.466,355.136,182.11,346.61z"/>
<path style="fill:#EDC2A2;" d="M182.11,346.61c-18.626-6.521-27.132,13.688-29.872,24.424c-0.087,0.342,40.972,14.345,41.072,14.076
	C196.776,375.781,201.611,353.436,182.11,346.61z"/>
<path style="fill:#F4CCB0;" d="M182.11,346.61c-18.626-6.521-27.132,13.688-29.872,24.424c-0.028,0.113,4.451,1.518,10.328,3.771
	C163.722,375.246,201.611,353.436,182.11,346.61z"/>
<path style="fill:#D3AE92;" d="M126.587,352.694c-13.474-1.335-12.472,18.491-11.97,19.419c1.348,2.496,20.188,3.769,21.961,1.162
	C137.172,372.403,140.061,354.03,126.587,352.694z"/>
<path style="fill:#E5DFE3;" d="M126.533,353.174c-13.207-1.309-12.224,18.123-11.732,19.033c1.321,2.446,19.787,3.694,21.527,1.139
	C136.909,372.491,139.74,354.482,126.533,353.174z"/>
<path style="fill:#F2EDF1;" d="M126.533,353.174c-13.207-1.309-12.224,18.123-11.732,19.033
	C116.122,374.652,139.74,354.482,126.533,353.174z"/>
<path style="fill:#EDC2A2;" d="M126.533,353.174c-10.1-1.001-11.901,10.13-11.969,15.828c-0.003,0.182,22.216,2.203,22.233,2.057
	C137.4,365.976,137.108,354.221,126.533,353.174z"/>
<path style="fill:#F4CCB0;" d="M126.533,353.174c-10.1-1.001-11.901,10.13-11.969,15.828c-0.001,0.06,2.408,0.22,5.619,0.633
	C120.813,369.716,137.108,354.221,126.533,353.174z"/>
<path style="fill:#D3AE92;" d="M94.857,321.807c-12.039,0.299-12.168,18.573-11.773,19.475c1.181,2.695,17.93,2.862,19.477,0.512
	C103.137,340.92,106.898,321.51,94.857,321.807z"/>
<path style="fill:#E5DFE3;" d="M94.835,322.283c-11.8,0.292-11.928,18.204-11.54,19.088c1.158,2.642,17.574,2.805,19.09,0.5
	C102.949,341.014,106.636,321.991,94.835,322.283z"/>
<path style="fill:#F2EDF1;" d="M94.835,322.283c-11.8,0.292,6.034,21.894,7.55,19.588
	C102.949,341.014,106.636,321.991,94.835,322.283z"/>
<path style="fill:#EDC2A2;" d="M94.835,322.283c-9.448,0.233-11.414,11.763-11.621,16.804c-0.007,0.146,19.822-0.169,19.846-0.347
	C103.827,333.135,103.86,322.059,94.835,322.283z"/>
<path style="fill:#F4CCB0;" d="M94.835,322.283c-9.448,0.233,2.627,16.688,3.192,16.656c2.882-0.164,5.023-0.14,5.032-0.199
	C103.827,333.135,103.86,322.059,94.835,322.283z"/>
<path style="fill:#D3AE92;" d="M67.949,299.059c-11.266,0.108-11.646,17.199-11.29,18.049c1.066,2.537,16.729,2.932,18.211,0.755
	C75.421,317.054,79.215,298.953,67.949,299.059z"/>
<path style="fill:#E5DFE3;" d="M67.922,299.504c-11.042,0.106-11.417,16.857-11.067,17.689c1.046,2.488,16.397,2.875,17.85,0.74
	C75.244,317.14,78.964,299.399,67.922,299.504z"/>
<path style="fill:#F2EDF1;" d="M67.922,299.504c-11.042,0.106,5.33,20.564,6.782,18.43C75.244,317.14,78.964,299.399,67.922,299.504
	z"/>
<path style="fill:#EDC2A2;" d="M67.922,299.504c-8.842,0.083-10.844,10.841-11.11,15.552c-0.008,0.136,18.543,0.125,18.567-0.042
	C76.178,309.783,76.365,299.424,67.922,299.504z"/>
<path style="fill:#F4CCB0;" d="M67.922,299.504c-8.842,0.083,2.219,15.647,2.748,15.625c2.699-0.113,4.701-0.059,4.709-0.114
	C76.178,309.783,76.365,299.424,67.922,299.504z"/>
<path style="fill:#D3AE92;" d="M49.254,280.478c-11.267,0.109-11.647,17.2-11.291,18.05c0.171,0.406,0.72,0.758,1.523,1.052
	c-0.695-0.276-1.172-0.598-1.328-0.968c-0.068-0.165-0.107-0.967-0.042-2.136c0,0-0.001,0-0.001-0.001
	c0.004-0.064,0.009-0.134,0.014-0.201c0.004-0.07,0.009-0.137,0.013-0.208c0.013-0.168,0.026-0.341,0.043-0.521
	c0.004-0.042,0.009-0.086,0.013-0.129c0.016-0.158,0.032-0.319,0.053-0.485c0.008-0.072,0.018-0.146,0.026-0.22
	c0.016-0.138,0.034-0.278,0.054-0.42c0.012-0.079,0.021-0.159,0.034-0.239c0.021-0.151,0.046-0.303,0.07-0.458
	c0.012-0.072,0.022-0.144,0.035-0.217c0.039-0.228,0.079-0.459,0.125-0.693c0.002-0.01,0.004-0.021,0.006-0.031
	c0.044-0.224,0.092-0.451,0.144-0.681c0.015-0.071,0.031-0.143,0.049-0.215c0.039-0.172,0.08-0.346,0.124-0.52
	c0.021-0.081,0.042-0.162,0.063-0.244c0.047-0.179,0.097-0.359,0.147-0.54c0.02-0.069,0.038-0.136,0.06-0.205
	c0.146-0.497,0.31-0.996,0.497-1.491c0.023-0.066,0.051-0.133,0.076-0.2c0.07-0.181,0.143-0.362,0.218-0.542
	c0.032-0.076,0.064-0.15,0.097-0.226c0.079-0.182,0.161-0.362,0.247-0.542c0.03-0.062,0.058-0.124,0.088-0.186
	c0.234-0.478,0.491-0.943,0.772-1.391c0.037-0.06,0.076-0.118,0.113-0.176c0.107-0.164,0.217-0.325,0.329-0.483
	c0.048-0.065,0.095-0.13,0.143-0.195c0.116-0.157,0.237-0.31,0.361-0.46c0.043-0.053,0.086-0.106,0.13-0.158
	c0.34-0.397,0.705-0.77,1.1-1.11c0.053-0.045,0.108-0.088,0.163-0.132c0.146-0.123,0.297-0.24,0.454-0.352
	c0.065-0.048,0.133-0.096,0.201-0.142c0.158-0.108,0.32-0.21,0.486-0.309c0.063-0.037,0.123-0.076,0.188-0.112
	c0.46-0.257,0.951-0.475,1.475-0.648c0.075-0.024,0.154-0.046,0.232-0.069c0.188-0.058,0.382-0.109,0.582-0.155
	c0.093-0.021,0.187-0.041,0.281-0.059c0.2-0.04,0.406-0.071,0.614-0.098c0.09-0.011,0.178-0.024,0.269-0.034
	c0.116-0.011,0.235-0.019,0.354-0.025c0.052-0.004,0.104-0.008,0.157-0.012c0.131-0.009,0.269-0.015,0.41-0.016
	c0.235-0.003,0.461,0.006,0.685,0.021c0.052,0.003,0.104,0.006,0.157,0.01c0.216,0.018,0.429,0.04,0.633,0.072
	c0.016,0.001,0.028,0.005,0.043,0.007c0.193,0.032,0.381,0.071,0.563,0.115c0.044,0.01,0.086,0.02,0.129,0.032
	c0.19,0.05,0.374,0.104,0.552,0.167c0.021,0.008,0.04,0.017,0.061,0.023c0.162,0.059,0.318,0.124,0.471,0.193
	c0.035,0.017,0.07,0.033,0.105,0.05c0.164,0.078,0.322,0.162,0.475,0.252c0.022,0.014,0.045,0.028,0.066,0.042
	c0.137,0.084,0.268,0.172,0.395,0.264c0.027,0.019,0.056,0.038,0.081,0.058c0.012,0.009,0.023,0.017,0.035,0.025
	c0.035-0.143,0.068-0.286,0.103-0.429C52.644,280.969,51.166,280.46,49.254,280.478z"/>
<g>
	<path style="fill:#E5DFE3;" d="M39.486,299.58c2.32,0.92,7.123,1.308,10.979,1.11c0-0.013,0.002-0.027,0.003-0.041
		C46.635,300.839,41.902,300.467,39.486,299.58z"/>
	<path style="fill:#E5DFE3;" d="M38.116,296.476c-0.065,1.169-0.026,1.971,0.042,2.136c0.156,0.37,0.633,0.692,1.328,0.968
		c2.416,0.887,7.148,1.259,10.981,1.069c0.08-1.279,0.219-2.65,0.409-4.094C45.439,296.588,38.145,296.561,38.116,296.476z"/>
</g>
<g>
	<path style="fill:#F2EDF1;" d="M48.657,280.95c0.03-0.003,0.061-0.003,0.092-0.004c0.022-0.002,0.042-0.005,0.065-0.007
		C48.762,280.942,48.709,280.946,48.657,280.95z"/>
	<path style="fill:#F2EDF1;" d="M53.64,282.229c0.013,0.009,0.022,0.019,0.035,0.028c0,0,0-0.001,0-0.002
		C53.663,282.246,53.651,282.238,53.64,282.229z"/>
</g>
<g>
	<path style="fill:#EDC2A2;" d="M48.303,280.975c0.078-0.008,0.161-0.008,0.241-0.014c0.038-0.003,0.075-0.009,0.113-0.011
		C48.538,280.957,48.419,280.964,48.303,280.975z"/>
	<path style="fill:#EDC2A2;" d="M38.115,296.475C38.115,296.476,38.116,296.476,38.115,296.475c0.005-0.066,0.009-0.132,0.014-0.201
		C38.124,296.341,38.119,296.411,38.115,296.475z"/>
	<path style="fill:#EDC2A2;" d="M44.85,282.038c0.46-0.257,0.952-0.475,1.475-0.648C45.801,281.563,45.309,281.782,44.85,282.038z"
		/>
	<path style="fill:#EDC2A2;" d="M50.388,294.585c-4.063-5.292-7.828-13.031-1.844-13.624c-0.08,0.006-0.163,0.006-0.241,0.014
		c-0.091,0.01-0.179,0.023-0.269,0.034c-0.208,0.026-0.414,0.058-0.614,0.098c-0.095,0.019-0.188,0.038-0.281,0.059
		c-0.199,0.045-0.394,0.097-0.582,0.155c-0.078,0.023-0.157,0.045-0.232,0.069c-0.522,0.173-1.015,0.391-1.475,0.648
		c-0.064,0.036-0.125,0.075-0.188,0.112c-0.166,0.098-0.328,0.2-0.486,0.309c-0.068,0.046-0.136,0.094-0.201,0.142
		c-0.157,0.112-0.308,0.229-0.454,0.352c-0.055,0.044-0.11,0.088-0.163,0.132c-0.395,0.34-0.76,0.712-1.1,1.11
		c-0.044,0.052-0.087,0.105-0.13,0.158c-0.124,0.15-0.245,0.304-0.361,0.46c-0.048,0.065-0.095,0.13-0.143,0.195
		c-0.112,0.158-0.222,0.32-0.329,0.483c-0.037,0.058-0.076,0.116-0.113,0.176c-0.281,0.448-0.538,0.914-0.772,1.391
		c-0.03,0.063-0.058,0.125-0.088,0.186c-0.086,0.179-0.168,0.36-0.247,0.542c-0.032,0.076-0.064,0.15-0.097,0.226
		c-0.075,0.179-0.147,0.361-0.218,0.542c-0.025,0.067-0.053,0.134-0.076,0.2c-0.188,0.495-0.352,0.995-0.497,1.491
		c-0.021,0.069-0.04,0.136-0.06,0.205c-0.051,0.18-0.101,0.36-0.147,0.54c-0.021,0.082-0.042,0.163-0.063,0.244
		c-0.044,0.174-0.085,0.347-0.124,0.52c-0.017,0.072-0.034,0.145-0.049,0.215c-0.052,0.229-0.1,0.457-0.144,0.681
		c-0.002,0.01-0.004,0.021-0.006,0.031c-0.046,0.234-0.086,0.466-0.125,0.693c-0.013,0.073-0.023,0.146-0.035,0.217
		c-0.024,0.155-0.05,0.308-0.07,0.458c-0.013,0.08-0.022,0.16-0.034,0.239c-0.02,0.143-0.038,0.282-0.054,0.42
		c-0.009,0.074-0.019,0.147-0.026,0.22c-0.021,0.166-0.037,0.327-0.053,0.485c-0.004,0.043-0.009,0.087-0.013,0.129
		c-0.017,0.181-0.03,0.354-0.043,0.521c-0.004,0.071-0.009,0.139-0.013,0.208c-0.005,0.069-0.009,0.135-0.013,0.202
		c0.029,0.085,7.323,0.112,12.761,0.079c0.046-0.355,0.096-0.716,0.148-1.079C50.832,295.217,50.617,294.918,50.388,294.585z"/>
	<path style="fill:#EDC2A2;" d="M48.657,280.95c-0.038,0.002-0.075,0.008-0.113,0.011c0.03-0.001,0.064-0.003,0.096-0.005
		c0.037-0.003,0.072-0.008,0.109-0.01C48.718,280.947,48.687,280.947,48.657,280.95z"/>
	<path style="fill:#EDC2A2;" d="M48.64,280.956c-0.031,0.002-0.065,0.004-0.096,0.005c-5.984,0.593-2.22,8.331,1.844,13.624
		C47.59,290.529,42.665,281.552,48.64,280.956z"/>
</g>
<g>
	<path style="fill:#F4CCB0;" d="M48.814,280.938c-0.023,0.002-0.043,0.005-0.065,0.007c0.157-0.009,0.313-0.021,0.476-0.023
		C49.083,280.924,48.947,280.931,48.814,280.938z"/>
	<path style="fill:#F4CCB0;" d="M50.388,294.585c0.229,0.333,0.444,0.632,0.638,0.892c0.004-0.024,0.008-0.048,0.011-0.07
		C50.82,295.14,50.603,294.865,50.388,294.585z"/>
	<path style="fill:#F4CCB0;" d="M48.749,280.946c-0.037,0.002-0.072,0.007-0.109,0.01c0.193-0.012,0.384-0.031,0.585-0.033
		C49.062,280.925,48.906,280.937,48.749,280.946z"/>
	<path style="fill:#F4CCB0;" d="M53.64,282.229c-0.025-0.021-0.054-0.039-0.081-0.058c-0.127-0.092-0.258-0.18-0.395-0.264
		c-0.021-0.014-0.044-0.028-0.066-0.042c-0.152-0.09-0.312-0.174-0.475-0.252c-0.034-0.017-0.07-0.033-0.105-0.05
		c-0.152-0.069-0.309-0.134-0.471-0.193c-0.021-0.007-0.039-0.016-0.061-0.023c-0.178-0.063-0.361-0.117-0.552-0.167
		c-0.043-0.012-0.085-0.021-0.129-0.032c-0.183-0.044-0.37-0.083-0.563-0.115c-0.015-0.001-0.027-0.005-0.043-0.007
		c-0.204-0.033-0.417-0.055-0.633-0.072c-0.053-0.004-0.105-0.007-0.157-0.01c-0.224-0.015-0.449-0.023-0.685-0.021
		c-0.201,0.002-0.392,0.021-0.585,0.033c-5.975,0.596-1.05,9.573,1.748,13.629c0.216,0.28,0.433,0.555,0.648,0.821
		c0.585-4.02,1.525-8.537,2.639-13.149C53.662,282.248,53.652,282.238,53.64,282.229z"/>
</g>
<path style="fill:#DBB595;" d="M464.687,288.648c-0.459-11.929-4.589-17.128-10.398-38.845
	c-8.053-30.097-23.953-125.259-32.663-178.97C378.881,28.975,321.065,2.462,257.07,0.182c1.33,33.486,4.68,117.625,5.16,127.929
	c0.6,12.903,48.299,174.76,48.299,174.76l38.081,70.656c45.881,17.894,43.586-23.399,43.586-23.399
	c24.775,0.459,27.069-21.564,27.069-21.564c22.481,0.918,25.693-20.188,25.693-20.188
	C457.348,311.588,464.956,295.661,464.687,288.648z"/>
<g>
	<path style="fill:#D3AB8D;" d="M432.111,247.509c0,0,5.484-17.61-5.199-13.764c0,0,7.188,24.47,13.306,43.28
		c6.118,18.812,4.741,31.352,4.741,31.352C449.7,297.517,432.111,247.509,432.111,247.509z"/>
	<path style="fill:#D3AB8D;" d="M410.549,286.048c0,0-1.538-9.037-4.016-16.555c-1.758-5.339-4.525-9.865-5.161-10.056
		c0,0,5.813,18.353,8.106,26.458c0,0,7.952,38.54,9.787,42.668C419.266,328.563,411.467,289.413,410.549,286.048z"/>
	<path style="fill:#D3AB8D;" d="M375.867,283.064c-0.021-0.239-0.035-0.381-0.035-0.381
		C375.822,282.772,375.839,282.908,375.867,283.064z M383.02,325.07c-0.887-3.386-2.524-16.006-3.556-27.131
		c-0.666-7.178-3.274-13.108-3.598-14.875c0.27,2.876,2.084,21.782,3.636,27.147c0,0,1.529,10.858,3.059,16.364
		s8.258,21.717,9.635,23.552C392.196,350.127,384.55,330.906,383.02,325.07z"/>
	<path style="fill:#D3AB8D;" d="M341.269,269.837c-20.494,28.446-2.142,54.75-2.142,54.75
		C342.033,319.235,341.269,269.837,341.269,269.837z"/>
	<path style="fill:#D3AB8D;" d="M350.445,360.68c-0.394-10.222-11.897-39.631-15.183-47.839c-0.104-1.073-0.241-2.393-0.416-4.005
		c-1.836-16.976,7.34-40.375,7.34-40.375l-78.914-139.935c0,9.635,3.212,38.999,3.212,60.562c0,21.564,7.341,100.937,7.341,100.937
		c-7.8,18.352-7.341,51.387-7.341,51.387c5.046,42.21,49.092,51.386,49.092,51.386C354.574,392.796,350.445,360.68,350.445,360.68z"
		/>
</g>
<path style="fill:#DBB595;" d="M349.527,362.057c-0.394-10.223-11.898-39.632-15.183-47.84c-0.104-1.073-0.241-2.393-0.416-4.004
	c-1.836-16.976,8.946-41.98,8.946-41.98l-80.291-141.542c0,9.635,2.982,42.21,2.982,63.774s7.341,100.937,7.341,100.937
	c-7.799,18.353-7.341,51.386-7.341,51.386c5.047,42.21,49.092,51.387,49.092,51.387
	C353.656,394.173,349.527,362.057,349.527,362.057z"/>
<path style="fill:#D3AE92;" d="M313.726,345.729c-24.848,8.699-10.969,42.093-9.448,43.47c4.548,4.112,39.563-6.929,40.967-12.263
	C345.767,374.952,338.575,337.031,313.726,345.729z"/>
<path style="fill:#E5DFE3;" d="M314.047,346.61c-24.354,8.526-10.752,41.257-9.26,42.606c4.457,4.031,38.777-6.791,40.152-12.02
	C345.451,375.252,338.401,338.084,314.047,346.61z"/>
<path style="fill:#F2EDF1;" d="M314.047,346.61c-24.354,8.526,29.518,35.816,30.893,30.586
	C345.451,375.252,338.401,338.084,314.047,346.61z"/>
<path style="fill:#EDC2A2;" d="M314.047,346.61c-19.5,6.827-14.666,29.171-11.199,38.5c0.101,0.269,41.158-13.734,41.071-14.076
	C341.179,360.298,332.674,340.089,314.047,346.61z"/>
<path style="fill:#F4CCB0;" d="M314.047,346.61c-19.5,6.827,18.39,28.637,19.544,28.195c5.877-2.253,10.357-3.659,10.328-3.771
	C341.179,360.298,332.674,340.089,314.047,346.61z"/>
<path style="fill:#D3AE92;" d="M369.571,352.694c-13.475,1.335-10.585,19.709-9.991,20.581c1.773,2.607,20.613,1.334,21.961-1.162
	C382.043,371.185,383.045,351.359,369.571,352.694z"/>
<path style="fill:#E5DFE3;" d="M369.625,353.174c-13.207,1.309-10.376,19.317-9.795,20.172c1.74,2.555,20.206,1.307,21.527-1.139
	C381.849,371.296,382.832,351.865,369.625,353.174z"/>
<path style="fill:#F2EDF1;" d="M369.625,353.174c-13.207,1.309,10.411,21.479,11.732,19.033
	C381.849,371.296,382.832,351.865,369.625,353.174z"/>
<path style="fill:#EDC2A2;" d="M369.625,353.174c-10.575,1.047-10.867,12.802-10.266,17.885c0.018,0.146,22.237-1.875,22.234-2.057
	C381.526,363.304,379.725,352.172,369.625,353.174z"/>
<path style="fill:#F4CCB0;" d="M369.625,353.174c-10.575,1.047,5.72,16.542,6.35,16.461c3.211-0.413,5.62-0.573,5.619-0.633
	C381.526,363.304,379.725,352.172,369.625,353.174z"/>
<path style="fill:#D3AE92;" d="M401.3,321.807c-12.04-0.297-8.278,19.113-7.703,19.987c1.548,2.351,18.296,2.184,19.478-0.512
	C413.469,340.38,413.34,322.106,401.3,321.807z"/>
<path style="fill:#E5DFE3;" d="M401.323,322.283c-11.802-0.292-8.115,18.731-7.55,19.588c1.516,2.305,17.932,2.142,19.09-0.5
	C413.25,340.486,413.123,322.575,401.323,322.283z"/>
<path style="fill:#F2EDF1;" d="M401.323,322.283c-11.802-0.292-8.115,18.731-7.55,19.588
	C395.289,344.176,413.123,322.575,401.323,322.283z"/>
<path style="fill:#EDC2A2;" d="M401.323,322.283c-9.026-0.223-8.992,10.852-8.225,16.457c0.023,0.178,19.853,0.493,19.846,0.347
	C412.737,334.046,410.771,322.516,401.323,322.283z"/>
<path style="fill:#F4CCB0;" d="M401.323,322.283c-9.026-0.223-8.992,10.852-8.225,16.457c0.009,0.059,2.15,0.035,5.032,0.199
	C398.696,338.971,410.771,322.516,401.323,322.283z"/>
<path style="fill:#D3AE92;" d="M428.208,299.059c-11.265-0.107-7.471,17.994-6.921,18.805c1.482,2.177,17.145,1.781,18.211-0.755
	C439.855,316.259,439.475,299.168,428.208,299.059z"/>
<path style="fill:#E5DFE3;" d="M428.236,299.504c-11.042-0.104-7.322,17.636-6.782,18.43c1.452,2.135,16.803,1.748,17.849-0.74
	C439.653,316.361,439.277,299.61,428.236,299.504z"/>
<path style="fill:#F2EDF1;" d="M428.236,299.504c-11.042-0.104-7.322,17.636-6.782,18.43
	C422.906,320.068,439.277,299.61,428.236,299.504z"/>
<path style="fill:#EDC2A2;" d="M428.236,299.504c-8.444-0.08-8.256,10.279-7.458,15.511c0.024,0.166,18.576,0.178,18.568,0.042
	C439.08,310.345,437.078,299.587,428.236,299.504z"/>
<path style="fill:#F4CCB0;" d="M428.236,299.504c-8.444-0.08-8.256,10.279-7.458,15.511c0.009,0.056,2.011,0.001,4.71,0.114
	C426.017,315.151,437.078,299.587,428.236,299.504z"/>
<path style="fill:#D3AE92;" d="M446.904,280.478c-1.913-0.018-3.391,0.491-4.523,1.348c0.033,0.143,0.067,0.287,0.104,0.429
	c0.01-0.009,0.022-0.017,0.034-0.025c0.025-0.021,0.054-0.039,0.081-0.058c0.127-0.092,0.258-0.18,0.395-0.264
	c0.021-0.014,0.044-0.028,0.066-0.042c0.152-0.09,0.311-0.174,0.475-0.252c0.035-0.017,0.07-0.033,0.105-0.05
	c0.151-0.069,0.309-0.134,0.47-0.193c0.021-0.007,0.04-0.016,0.061-0.023c0.178-0.063,0.362-0.117,0.553-0.167
	c0.043-0.012,0.085-0.021,0.129-0.032c0.183-0.044,0.37-0.083,0.563-0.115c0.014-0.001,0.027-0.005,0.042-0.007
	c0.205-0.033,0.418-0.055,0.634-0.072c0.053-0.004,0.105-0.007,0.156-0.01c0.224-0.015,0.45-0.023,0.686-0.021
	c0.142,0.001,0.278,0.007,0.41,0.016c0.053,0.004,0.105,0.007,0.156,0.012c0.12,0.007,0.238,0.014,0.354,0.025
	c0.092,0.01,0.18,0.023,0.27,0.034c0.208,0.026,0.414,0.058,0.614,0.098c0.094,0.019,0.188,0.038,0.281,0.059
	c0.199,0.045,0.393,0.097,0.582,0.155c0.078,0.023,0.156,0.045,0.232,0.069c0.523,0.173,1.015,0.391,1.475,0.648
	c0.063,0.036,0.125,0.075,0.188,0.112c0.166,0.098,0.328,0.2,0.486,0.309c0.068,0.046,0.136,0.094,0.201,0.142
	c0.156,0.112,0.307,0.229,0.454,0.352c0.054,0.044,0.109,0.087,0.162,0.132c0.396,0.34,0.761,0.712,1.101,1.11
	c0.043,0.052,0.087,0.105,0.13,0.158c0.124,0.151,0.245,0.304,0.361,0.46c0.048,0.065,0.095,0.13,0.142,0.195
	c0.113,0.158,0.223,0.32,0.329,0.483c0.038,0.058,0.077,0.116,0.114,0.176c0.281,0.448,0.537,0.914,0.772,1.391
	c0.029,0.063,0.058,0.125,0.088,0.186c0.086,0.179,0.168,0.36,0.247,0.542c0.032,0.076,0.064,0.15,0.097,0.226
	c0.075,0.18,0.147,0.361,0.218,0.542c0.025,0.067,0.052,0.134,0.076,0.2c0.187,0.495,0.352,0.995,0.497,1.491
	c0.021,0.069,0.04,0.136,0.059,0.205c0.052,0.18,0.102,0.36,0.147,0.54c0.021,0.082,0.043,0.163,0.063,0.244
	c0.045,0.174,0.086,0.347,0.125,0.52c0.018,0.072,0.033,0.145,0.049,0.215c0.052,0.229,0.1,0.457,0.143,0.681
	c0.002,0.01,0.005,0.021,0.007,0.031c0.046,0.234,0.086,0.466,0.125,0.693c0.012,0.073,0.023,0.146,0.035,0.217
	c0.024,0.155,0.049,0.307,0.07,0.458c0.012,0.08,0.022,0.16,0.034,0.239c0.02,0.143,0.037,0.282,0.054,0.42
	c0.009,0.074,0.019,0.147,0.026,0.22c0.02,0.166,0.037,0.327,0.053,0.485c0.004,0.043,0.009,0.087,0.012,0.129
	c0.018,0.181,0.031,0.354,0.043,0.521c0.005,0.071,0.01,0.139,0.014,0.208c0.004,0.067,0.01,0.137,0.014,0.201
	c0,0.001-0.002,0.001-0.002,0.001c0.066,1.169,0.027,1.971-0.041,2.136c-0.156,0.37-0.634,0.692-1.328,0.968
	c0.804-0.294,1.352-0.646,1.522-1.052C458.552,297.678,458.171,280.587,446.904,280.478z"/>
<g>
	<path style="fill:#E5DFE3;" d="M445.69,300.649c0.001,0.013,0.003,0.027,0.003,0.041c3.854,0.198,8.658-0.19,10.979-1.11
		C454.256,300.467,449.522,300.839,445.69,300.649z"/>
	<path style="fill:#E5DFE3;" d="M458.041,296.476c-0.028,0.085-7.322,0.112-12.76,0.079c0.19,1.444,0.329,2.815,0.409,4.094
		c3.832,0.19,8.565-0.182,10.981-1.069c0.694-0.276,1.172-0.598,1.328-0.968C458.068,298.447,458.107,297.645,458.041,296.476z"/>
</g>
<g>
	<path style="fill:#F2EDF1;" d="M447.344,280.938c0.023,0.002,0.043,0.005,0.065,0.007c0.03,0.001,0.062,0.001,0.091,0.004
		C447.449,280.946,447.396,280.942,447.344,280.938z"/>
	<path style="fill:#F2EDF1;" d="M442.484,282.255c0,0.001,0,0.002,0,0.002c0.012-0.009,0.021-0.019,0.034-0.028
		C442.507,282.238,442.494,282.246,442.484,282.255z"/>
</g>
<g>
	<path style="fill:#EDC2A2;" d="M447.5,280.95c0.039,0.002,0.076,0.008,0.114,0.011c0.079,0.006,0.162,0.006,0.24,0.014
		C447.738,280.964,447.62,280.957,447.5,280.95z"/>
	<path style="fill:#EDC2A2;" d="M458.029,296.274c0.004,0.069,0.009,0.135,0.012,0.202c0,0,0.002,0,0.002-0.001
		C458.039,296.411,458.033,296.341,458.029,296.274z"/>
	<path style="fill:#EDC2A2;" d="M449.834,281.391c0.521,0.173,1.015,0.391,1.475,0.648
		C450.849,281.782,450.357,281.563,449.834,281.391z"/>
	<path style="fill:#EDC2A2;" d="M458.029,296.274c-0.004-0.07-0.009-0.137-0.014-0.208c-0.012-0.168-0.025-0.341-0.043-0.521
		c-0.003-0.042-0.008-0.086-0.012-0.129c-0.016-0.158-0.033-0.319-0.053-0.485c-0.008-0.072-0.018-0.146-0.026-0.22
		c-0.017-0.138-0.034-0.278-0.054-0.42c-0.012-0.079-0.022-0.159-0.034-0.239c-0.021-0.15-0.046-0.303-0.07-0.458
		c-0.012-0.072-0.023-0.144-0.035-0.217c-0.039-0.228-0.079-0.459-0.125-0.693c-0.002-0.01-0.005-0.021-0.007-0.031
		c-0.043-0.224-0.091-0.451-0.143-0.681c-0.016-0.071-0.033-0.143-0.049-0.215c-0.039-0.172-0.08-0.346-0.125-0.52
		c-0.02-0.081-0.041-0.162-0.063-0.244c-0.046-0.179-0.096-0.359-0.147-0.54c-0.019-0.069-0.038-0.136-0.059-0.205
		c-0.146-0.497-0.311-0.996-0.497-1.491c-0.024-0.066-0.051-0.133-0.076-0.2c-0.07-0.181-0.143-0.363-0.218-0.542
		c-0.032-0.076-0.064-0.15-0.097-0.226c-0.079-0.182-0.161-0.362-0.247-0.542c-0.03-0.062-0.059-0.124-0.088-0.186
		c-0.235-0.478-0.491-0.943-0.772-1.391c-0.037-0.06-0.076-0.118-0.114-0.176c-0.106-0.164-0.216-0.325-0.329-0.483
		c-0.047-0.065-0.094-0.13-0.142-0.195c-0.116-0.157-0.237-0.31-0.361-0.46c-0.043-0.053-0.087-0.106-0.13-0.158
		c-0.34-0.397-0.705-0.77-1.101-1.11c-0.053-0.044-0.108-0.088-0.162-0.132c-0.147-0.123-0.298-0.24-0.454-0.352
		c-0.065-0.048-0.133-0.096-0.201-0.142c-0.158-0.108-0.32-0.21-0.486-0.309c-0.063-0.037-0.124-0.076-0.188-0.112
		c-0.46-0.257-0.953-0.475-1.475-0.648c-0.076-0.024-0.154-0.046-0.232-0.069c-0.189-0.058-0.383-0.109-0.582-0.155
		c-0.093-0.021-0.188-0.041-0.281-0.059c-0.2-0.04-0.406-0.071-0.614-0.098c-0.09-0.011-0.178-0.024-0.27-0.034
		c-0.078-0.008-0.161-0.008-0.24-0.014c5.984,0.593,2.22,8.331-1.844,13.624c-0.229,0.333-0.445,0.632-0.639,0.892
		c0.053,0.363,0.103,0.724,0.149,1.079c5.438,0.033,12.731,0.006,12.76-0.079C458.038,296.409,458.033,296.343,458.029,296.274z"/>
	<path style="fill:#EDC2A2;" d="M447.5,280.95c-0.029-0.003-0.061-0.003-0.091-0.004c0.037,0.002,0.072,0.007,0.108,0.01
		c0.032,0.002,0.065,0.004,0.097,0.005C447.576,280.958,447.539,280.953,447.5,280.95z"/>
	<path style="fill:#EDC2A2;" d="M447.614,280.961c-0.031-0.001-0.064-0.003-0.097-0.005c5.976,0.596,1.051,9.573-1.747,13.629
		C449.834,289.292,453.599,281.554,447.614,280.961z"/>
</g>
<g>
	<path style="fill:#F4CCB0;" d="M447.344,280.938c-0.133-0.008-0.269-0.015-0.41-0.016c0.162,0.002,0.318,0.014,0.476,0.023
		C447.387,280.944,447.367,280.94,447.344,280.938z"/>
	<path style="fill:#F4CCB0;" d="M445.121,295.406c0.004,0.022,0.008,0.046,0.011,0.07c0.193-0.26,0.409-0.559,0.639-0.892
		C445.555,294.865,445.338,295.14,445.121,295.406z"/>
	<path style="fill:#F4CCB0;" d="M447.409,280.946c-0.157-0.009-0.313-0.021-0.476-0.023c0.201,0.002,0.391,0.021,0.584,0.033
		C447.481,280.953,447.446,280.948,447.409,280.946z"/>
	<path style="fill:#F4CCB0;" d="M447.517,280.956c-0.193-0.012-0.383-0.031-0.584-0.033c-0.235-0.003-0.462,0.006-0.686,0.021
		c-0.051,0.003-0.104,0.006-0.156,0.01c-0.216,0.018-0.429,0.04-0.634,0.072c-0.015,0.001-0.028,0.005-0.042,0.007
		c-0.193,0.032-0.381,0.071-0.563,0.115c-0.044,0.01-0.086,0.02-0.129,0.032c-0.19,0.05-0.375,0.104-0.553,0.167
		c-0.021,0.008-0.039,0.017-0.061,0.023c-0.161,0.059-0.318,0.124-0.47,0.193c-0.035,0.017-0.072,0.033-0.105,0.05
		c-0.163,0.078-0.322,0.162-0.475,0.252c-0.022,0.014-0.045,0.028-0.066,0.042c-0.137,0.084-0.268,0.172-0.395,0.264
		c-0.027,0.019-0.056,0.038-0.081,0.058c-0.013,0.009-0.022,0.019-0.034,0.028c1.111,4.612,2.053,9.129,2.637,13.149
		c0.217-0.267,0.434-0.541,0.649-0.821C448.568,290.529,453.493,281.552,447.517,280.956z"/>
</g>
<g>
	<ellipse style="fill:#D10566;" cx="245.189" cy="266.399" rx="27.333" ry="44"/>
	
		<ellipse transform="matrix(-0.7721 -0.6355 0.6355 -0.7721 281.5777 731.2943)" style="fill:#D10566;" cx="271.915" cy="315.158" rx="33.889" ry="21.591"/>
	<path style="fill:#D10566;" d="M245.417,293.631c-7.576-9.205-25.435-7.025-39.887,4.867
		c-14.449,11.894-20.021,29.001-12.441,38.207c7.575,9.206,25.434,7.025,39.885-4.867
		C247.423,319.944,252.996,302.838,245.417,293.631z"/>
</g>
<ellipse style="fill:#CE0658;" cx="245.199" cy="291.739" rx="14.999" ry="24.15"/>
<ellipse style="fill:#E20E64;" cx="245.199" cy="294.399" rx="8.999" ry="14.487"/>
<g>
	<path style="fill:#DB1675;" d="M315.794,285.103c-0.256-4.153-1.354-8.855-3.479-11.572c-4.177-5.338-15.702-18.898-21.14-20.734
		c-5.666-1.913-20-5-26,6.667s-12.167,21-20.833,25.667c0,0,0.313,0.016,0.878,0.044c-0.565,0.027-0.878,0.043-0.878,0.043
		c8.666,4.667,14.833,14,20.833,25.667s20,8.667,26,6.667s16.963-15.396,21.14-20.734c2.126-2.717,3.224-7.419,3.479-11.572
		c0.001-0.024-0.013-0.047-0.018-0.071C315.781,285.151,315.795,285.128,315.794,285.103z"/>
	<path style="fill:#DB1675;" d="M245.795,285.167c-8.666-4.667-14.833-14-20.833-25.667s-20-8.667-26-6.667
		s-16.963,15.396-21.14,20.734c-2.126,2.717-3.224,7.419-3.479,11.572c-0.001,0.024,0.013,0.047,0.018,0.071
		c-0.005,0.024-0.019,0.047-0.018,0.071c0.256,4.153,1.354,8.855,3.479,11.572c4.177,5.338,15.702,18.898,21.14,20.734
		c5.666,1.913,20,5,26-6.667s12.167-21,20.833-25.667c0,0-0.313-0.016-0.878-0.044C245.482,285.183,245.795,285.167,245.795,285.167
		z"/>
</g>
<circle style="fill:#F9EDF3;" cx="245.169" cy="286.219" r="6.333"/>
</svg>