<?xml version="1.0" encoding="iso-8859-1"?>
<!-- Uploaded to: SVG Repo, www.svgrepo.com, Generator: SVG Repo Mixer Tools -->
<svg height="800px" width="800px" version="1.1" id="Layer_1" xmlns="http://www.w3.org/2000/svg" xmlns:xlink="http://www.w3.org/1999/xlink" 
	 viewBox="0 0 496.158 496.158" xml:space="preserve">
<path style="fill:#EDC92F;" d="M248.082,0.003C111.07,0.003,0,111.063,0,248.085c0,137.001,111.07,248.07,248.082,248.07
	c137.006,0,248.076-111.069,248.076-248.07C496.158,111.062,385.088,0.003,248.082,0.003z"/>
<g>
	<polygon style="fill:#E9C29C;" points="286.326,351.206 209.83,351.206 196.462,430.701 298.693,430.701 	"/>
	<path style="fill:#E9C29C;" d="M393.482,408.079c0,0-71.682-16.355-144.531-16.355s-143.279,16.355-143.279,16.355
		c-12.826,0-24.078,7.995-30.449,17.917c44.646,43.382,105.553,70.118,172.713,70.157c0.264,0,0.527-0.005,0.793-0.007
		c67.863-0.173,129.317-27.598,174.008-71.908C416.209,415.148,405.543,408.079,393.482,408.079z"/>
</g>
<g>
	<ellipse style="fill:#E2BB9A;" cx="341.379" cy="251.459" rx="9" ry="21.749"/>
	<ellipse style="fill:#E2BB9A;" cx="154.389" cy="251.459" rx="9" ry="21.749"/>
</g>
<path style="fill:#E9C29C;" d="M248.321,108.588c-55.327,0-100.183,27.276-100.183,100.491c0,32.833,8.072,88.485,23.934,110.921
	c11.369,16.079,47.572,53.795,76.249,53.795s64.329-34.383,76.839-54.716c14.293-23.229,23.346-77.601,23.346-110
	C348.506,135.864,303.656,108.588,248.321,108.588z"/>
<g>
	<path style="fill:#917751;" d="M230.693,211.155c0,0-12.757-0.781-17.379-1.058c-4.621-0.275-12.288,0.059-18.621,1.725
		s-19,12.333-19,12.333s14.333-6.583,20-7.25s11.667-0.667,17.667,0s20,3.917,20,3.917L230.693,211.155z"/>
	<path style="fill:#917751;" d="M299.027,211.822c-6.333-1.666-14-2-18.621-1.725c-4.622,0.276-17.379,1.058-17.379,1.058
		l-2.667,9.667c0,0,14-3.25,20-3.917s12-0.667,17.667,0s20,7.25,20,7.25S305.36,213.488,299.027,211.822z"/>
</g>
<path style="fill:#666666;" d="M210.133,225.872c-12.252,0.848-21.602,9.933-21.428,12.452c0,0,10.686,10.23,22.938,9.383
	c12.25-0.848,21.426-12.451,21.426-12.451S222.383,225.025,210.133,225.872z"/>
<path style="fill:#E9C29C;" d="M210.133,223.943c-11.592,0.802-23.941,10.615-23.791,12.787c0,0,13.501,8.758,25.092,7.955
	c11.59-0.801,20.337-10.857,20.337-10.857S221.723,223.142,210.133,223.943z"/>
<path style="fill:#666666;" d="M285.183,225.872c-12.25-0.847-22.936,9.384-22.936,9.384s9.176,11.604,21.426,12.451
	c12.252,0.848,22.938-9.383,22.938-9.383C306.785,235.805,297.435,226.72,285.183,225.872z"/>
<path style="fill:#E9C29C;" d="M285.183,223.943c-11.59-0.802-21.639,9.885-21.639,9.885s8.747,10.057,20.338,10.857
	c11.591,0.803,24.709-7.955,24.709-7.955C308.742,234.558,296.775,224.745,285.183,223.943z"/>
<path style="fill:#F9F4EF;" d="M156.079,116.079c-30.497,47.7-18.616,110.635-11,132.5c2.124,6.097,6,2,6,2
	s52.796-36.759,97.999-83.751V55.795C249.078,55.795,185.752,69.667,156.079,116.079z"/>
<path style="fill:#EFE8DF;" d="M336.079,107.079c-35.652-41.994-70.029-51.573-89.753-59.107
	c-13.805-5.273-13.499,30.249-11.999,54.248c1.599,25.571,14.751,64.608,14.751,64.608c38.501,51.251,101.501,77.251,101.501,77.251
	S371.732,149.072,336.079,107.079z"/>
<polygon style="fill:#FFFFFF;" points="248.436,320.336 221.043,321.389 248.057,327.946 275.83,321.389 "/>
<path style="fill:#CE8C78;" d="M248.436,325.283c-9.132,0-28.442-3.704-28.442-3.704s9.801,16.64,28.443,16.64
	s28.055-16.64,28.055-16.64S257.568,325.283,248.436,325.283z"/>
<path style="fill:#DB9A83;" d="M262.133,314.439c-6.85,0-13.695,1.712-13.695,1.712s-6.85-1.712-13.697-1.712
	c-6.85,0-14.746,7.14-14.746,7.14s17.789,1.111,28.443,1.111c10.654,0,28.055-1.111,28.055-1.111S268.982,314.439,262.133,314.439z"
	/>
<path style="fill:#E8B1A0;" d="M224.236,320.736l17.275-3.394C230.077,312.369,224.236,320.736,224.236,320.736z"/>
<path style="fill:#D8AF91;" d="M259.909,280.312l-5.505-31.932l3.303,33.033c0,0,9.635,6.882,1.927,14.314
	C259.634,295.728,273.672,292.975,259.909,280.312z"/>
<path style="fill:#E0B896;" d="M236.502,280.312c-13.764,12.662,0.275,15.416,0.275,15.416c-7.707-7.433,1.927-14.314,1.927-14.314
	l3.304-33.033L236.502,280.312z"/>
<g>
	<path style="fill:#D1AB8F;" d="M322.017,267.301c0,0-8.599,13.631-15.729,20.365c-3.632,3.449-8.738,12.547-13.295,22.415
		c-4.375,9.48-10.825,17.038-9.303,20.031c4.184,8.21,16.29-0.354,17.518-1.481c10.442-9.598,20.635-23.938,20.635-23.938
		l14.436-12.98L322.017,267.301z"/>
	<path style="fill:#D1AB8F;" d="M325.573,324.145c-4.539-2.56-8.847-0.104-8.847-0.104l-21.093,24.025l-24.026,24.235
		c-2.606,4.587-4.897,7.605-2.21,11.734c3.573,5.485,10.076-1.405,14.065-6.22l23.846-17.572l32.41-22.725
		C342.327,332.932,330.107,326.703,325.573,324.145z"/>
	<path style="fill:#D1AB8F;" d="M387.918,43.156c-10.65,65.324-27.83,192.379-32.683,193.795c-5.304,1.55-28.157,20.18-35.53,33.56
		l8.322,27.136l-4.636,14.188c-2.583,5.048-8.811,15.648-8.811,15.648l18.928,14.543c6.561-4.283,8.949-6.558,13.896-13.56
		c6.634-9.393,15.966-18.644,36.673-48.468c0,0,46.246-93.228,65.745-142.725c2.687-6.82,5.437-14.045,8.148-21.473
		C439.821,87.062,415.936,62.312,387.918,43.156z"/>
	<path style="fill:#D1AB8F;" d="M172.608,311.835l-4.636-14.188l8.322-27.136c-7.373-13.38-30.227-32.01-35.53-33.56
		c-4.85-1.415-22.016-128.342-32.667-193.695c-28.008,19.178-51.879,43.947-70.01,72.706c2.693,7.371,5.422,14.541,8.09,21.313
		C65.676,186.772,111.922,280,111.922,280c20.707,29.824,30.039,39.075,36.673,48.468c4.946,7.002,7.335,9.276,13.896,13.56
		l18.928-14.543C181.419,327.483,175.191,316.883,172.608,311.835z"/>
	<path style="fill:#D1AB8F;" d="M203.007,310.081c-4.557-9.868-9.663-18.966-13.295-22.415
		c-7.131-6.734-15.729-20.365-15.729-20.365l-14.261,24.412l14.436,12.98c0,0,10.192,14.34,20.635,23.938
		c1.228,1.127,13.334,9.691,17.518,1.481C213.832,327.119,207.382,319.561,203.007,310.081z"/>
	<path style="fill:#D1AB8F;" d="M224.392,372.302l-24.026-24.235l-21.093-24.025c0,0-4.308-2.455-8.847,0.104
		c-4.534,2.558-16.754,8.786-14.146,13.374l32.41,22.725l23.846,17.572c3.989,4.814,10.492,11.705,14.065,6.22
		C229.29,379.907,226.999,376.889,224.392,372.302z"/>
</g>
</svg>