<?xml version="1.0" encoding="iso-8859-1"?>
<!-- Uploaded to: SVG Repo, www.svgrepo.com, Generator: SVG Repo Mixer Tools -->
<svg height="800px" width="800px" version="1.1" id="Layer_1" xmlns="http://www.w3.org/2000/svg" xmlns:xlink="http://www.w3.org/1999/xlink" 
	 viewBox="0 0 496.159 496.159" xml:space="preserve">
<g>
	<path style="fill:#EB9783;" d="M248.083,0.003C111.071,0.003,0,111.063,0,248.085c0,137.001,111.07,248.07,248.083,248.07
		c137.006,0,248.076-111.069,248.076-248.07C496.159,111.062,385.089,0.003,248.083,0.003z"/>
	<path style="fill:#EB9783;" d="M109.718,454.012c39.528,26.609,87.131,42.144,138.365,42.144
		c51.836,0,99.952-15.909,139.752-43.097L109.718,454.012z"/>
</g>
<path style="fill:#917751;" d="M373.627,203.267c0-86.468-55.509-118.681-125.306-118.681c-69.788,0-125.301,32.213-125.301,118.681
	c0,36.624-21.257,158.216-31.398,237.321c5.821,4.736,11.854,9.223,18.095,13.424l278.117-0.953
	c6.36-4.344,12.51-8.971,18.426-13.873C397.476,360.929,373.627,239.333,373.627,203.267z"/>
<polygon style="fill:#E2BB9A;" points="286.326,351.206 209.83,351.206 196.462,430.701 298.694,430.701 "/>
<path style="fill:#EB9783;" d="M247.935,496.153c0.049,0,0.098,0.002,0.147,0.002c0.216,0,0.43-0.008,0.646-0.009
	C248.463,496.148,248.2,496.153,247.935,496.153z"/>
<path style="fill:#E2BB9A;" d="M393.483,408.079c0,0-71.682-16.355-144.531-16.355c-72.85,0-143.279,16.355-143.279,16.355
	c-12.827,0-24.078,7.995-30.449,17.917c44.646,43.382,105.552,70.118,172.712,70.157c0.265,0,0.528-0.005,0.793-0.007
	c67.864-0.173,129.318-27.598,174.008-71.908C416.209,415.148,405.543,408.079,393.483,408.079z"/>
<ellipse style="fill:#E9C29C;" cx="339.879" cy="257.459" rx="9" ry="21.749"/>
<ellipse style="fill:#E2BB9A;" cx="154.389" cy="257.459" rx="9" ry="21.749"/>
<path style="fill:#E9C29C;" d="M248.322,108.588c-55.328,0-100.183,27.276-100.183,100.491c0,32.833,8.072,88.485,23.934,110.921
	c11.368,16.079,47.572,53.795,76.249,53.795s64.329-34.383,76.839-54.716c14.292-23.229,23.345-77.601,23.345-110
	C348.506,135.864,303.657,108.588,248.322,108.588z"/>
<polygon style="fill:#FFFFFF;" points="248.437,320.336 221.043,321.389 248.058,327.946 275.831,321.389 "/>
<path style="fill:#CE8C78;" d="M248.437,325.283c-9.131,0-28.442-3.704-28.442-3.704s9.8,16.64,28.443,16.64
	s28.055-16.64,28.055-16.64S257.568,325.283,248.437,325.283z"/>
<path style="fill:#DB9A83;" d="M262.134,314.439c-6.85,0-13.696,1.712-13.696,1.712s-6.849-1.712-13.697-1.712
	c-6.849,0-14.746,7.14-14.746,7.14s17.789,1.111,28.443,1.111s28.055-1.111,28.055-1.111S268.982,314.439,262.134,314.439z"/>
<path style="fill:#E8B1A0;" d="M224.236,320.736l17.275-3.394C230.077,312.369,224.236,320.736,224.236,320.736z"/>
<path style="fill:#A58763;" d="M255.694,90.746c-179.991-44.998-136,231.333-136,231.333c35.67-101.987,52-138,158-158
	C309.952,157.992,255.694,90.746,255.694,90.746z"/>
<path style="fill:#666666;" d="M209.805,221.734c-13.915-0.962-26.051,10.658-26.051,10.658
	c-0.198,2.861,10.422,13.18,24.336,14.143c13.915,0.961,26.051-10.658,26.051-10.658S223.72,222.697,209.805,221.734z"/>
<path style="fill:#F7F1ED;" d="M209.568,225.166c-13.165-0.91-24.577,9.035-24.577,9.035c-0.17,2.467,9.934,11.423,23.099,12.334
	c13.165,0.91,24.577-9.037,24.577-9.037S222.733,226.076,209.568,225.166z"/>
<circle style="fill:#5B5B5B;" cx="208.809" cy="236.129" r="8.839"/>
<circle style="fill:#333333;" cx="208.809" cy="236.129" r="6.254"/>
<path style="fill:#666666;" d="M285.371,221.734c-13.915,0.963-24.336,14.143-24.336,14.143s12.137,11.619,26.051,10.658
	c13.915-0.963,24.534-11.281,24.336-14.143C311.423,232.392,299.286,220.772,285.371,221.734z"/>
<path style="fill:#F7F1ED;" d="M285.608,225.166c-13.165,0.91-23.099,12.332-23.099,12.332s11.412,9.947,24.577,9.037
	c13.165-0.911,23.269-9.867,23.099-12.334C310.185,234.201,298.773,224.256,285.608,225.166z"/>
<circle style="fill:#5B5B5B;" cx="286.349" cy="235.709" r="8.839"/>
<circle style="fill:#333333;" cx="286.349" cy="235.709" r="6.254"/>
<path style="fill:#D8AF91;" d="M261.058,277.63l-6.034-34.996l3.62,36.202c0,0,10.559,7.543,2.112,15.688
	C260.757,294.524,276.143,291.508,261.058,277.63z"/>
<path style="fill:#E0B896;" d="M235.405,277.63c-15.084,13.878,0.302,16.895,0.302,16.895c-8.447-8.146,2.112-15.688,2.112-15.688
	l3.621-36.202L235.405,277.63z"/>
<g>
	<path style="fill:#917751;" d="M230.694,210.079c0,0-12.757-0.781-17.378-1.058c-4.622-0.275-12.289,0.059-18.622,1.725
		s-19,12.333-19,12.333s14.333-6.583,20-7.25s11.667-0.667,17.667,0s20,3.917,20,3.917L230.694,210.079z"/>
	<path style="fill:#917751;" d="M299.028,210.746c-6.333-1.666-14-2-18.622-1.725c-4.622,0.276-17.378,1.058-17.378,1.058
		l-2.667,9.667c0,0,14-3.25,20-3.917s12-0.667,17.667,0s20,7.25,20,7.25S305.361,212.412,299.028,210.746z"/>
</g>
<path style="fill:#9E835A;" d="M219.694,86.079c0,0,42,128,165.558,197.552C385.251,283.631,409.694,36.079,219.694,86.079z"/>
<path style="fill:#A58763;" d="M275.694,102.079l84,92C345.694,110.079,275.694,102.079,275.694,102.079z"/>
</svg>